Coordinates
version=1
nRows=14
nColumns=46
inDegrees=yes

Units are S.I. units (second, meters, Newtons, ...)
Angles are in degrees.

endheader
time	pelvis_tilt	pelvis_list	pelvis_rotation	pelvis_tx	pelvis_ty	pelvis_tz	bb_angle	bb_tx	bb_ty	bb_tz	hip_flexion_r	hip_adduction_r	hip_rotation_r	knee_angle_r	knee_angle_r_beta	ankle_angle_r	subtalar_angle_r	mtp_angle_r	crank_angle_r	hip_flexion_l	hip_adduction_l	hip_rotation_l	knee_angle_l	knee_angle_l_beta	ankle_angle_l	subtalar_angle_l	mtp_angle_l	crank_angle_l	lumbar_extension	lumbar_bending	lumbar_rotation	arm_flex_r	arm_add_r	arm_rot_r	elbow_flex_r	pro_sup_r	wrist_flex_r	wrist_dev_r	arm_flex_l	arm_add_l	arm_rot_l	elbow_flex_l	pro_sup_l	wrist_flex_l	wrist_dev_l
      5.00500000	    -29.78096310	      6.41278816	     16.72119462	      0.38691854	      1.07623333	     -0.22945463	      0.00000000	      0.50000000	      0.00000000	      0.25000000	     32.85685181	    -16.15070937	     -3.76448453	     33.54372941	      0.58544852	    -19.28204606	     -6.14469399	      0.00000000	      0.00000000	     82.26857047	      4.05865431	     -1.86500895	    104.49750308	      1.82382549	     19.80755369	      7.51360924	      0.00000000	      0.00000000	    -44.60824018	     -6.50023141	    -18.91998163	     58.38859537	     -1.78413977	     23.17103030	     30.44157605	     48.21327055	      0.00000000	      0.00000000	     51.02928724	    -16.52432589	     20.81752878	     69.92967442	     49.62253271	      0.00000000	      0.00000000
      5.01000000	    -29.52485344	      5.97578992	     16.98262566	      0.38723018	      1.07683442	     -0.22984128	      0.00000000	      0.50000000	      0.00000000	      0.25000000	     32.87557407	    -15.86135289	     -4.14622657	     35.57277120	      0.62086198	    -18.68955154	     -6.41623030	      0.00000000	      0.00000000	     81.69292751	      4.20866872	     -1.80966705	    102.87396429	      1.79548939	     21.07368495	      7.23810023	      0.00000000	      0.00000000	    -44.82456234	     -6.22081961	    -18.77371880	     58.33570658	     -1.96160787	     23.10706578	     30.30878739	     48.19557514	      0.00000000	      0.00000000	     51.00378774	    -16.26110023	     20.81766772	     70.01954055	     49.63112915	      0.00000000	      0.00000000
      5.01500000	    -29.22579544	      5.53000799	     17.17098156	      0.38757433	      1.07742042	     -0.23030596	      0.00000000	      0.50000000	      0.00000000	      0.25000000	     32.99127052	    -15.57244706	     -4.50726795	     37.80736714	      0.65986304	    -17.86094026	     -6.38878214	      0.00000000	      0.00000000	     80.92167644	      4.34597508	     -1.61819959	    101.08795615	      1.76431767	     22.51284313	      7.35369180	      0.00000000	      0.00000000	    -45.01063913	     -5.97819474	    -18.55578240	     58.33170490	     -2.19375287	     23.06007954	     30.07401022	     48.17172089	      0.00000000	      0.00000000	     51.02848520	    -15.83928294	     20.74515067	     70.07294710	     49.62068787	      0.00000000	      0.00000000
      5.02000000	    -28.82798527	      5.02207632	     17.21918872	      0.38808130	      1.07811003	     -0.23056028	      0.00000000	      0.50000000	      0.00000000	      0.25000000	     33.09106542	    -15.10015420	     -4.71917945	     40.04076260	      0.69884314	    -17.32533742	     -6.47494005	      0.00000000	      0.00000000	     79.99002473	      4.27072480	     -1.39719663	     99.16292265	      1.73071950	     23.62351793	      7.36917164	      0.00000000	      0.00000000	    -45.23529082	     -5.74484433	    -18.24152984	     58.36455052	     -2.31476393	     23.07523829	     29.85620367	     48.15455318	      0.00000000	      0.00000000	     51.00704532	    -15.54949059	     20.65280672	     70.02628982	     49.59474724	      0.00000000	      0.00000000
      5.02500000	    -28.45188723	      4.51529869	     17.24164244	      0.38845362	      1.07874746	     -0.23093931	      0.00000000	      0.50000000	      0.00000000	      0.25000000	     33.31769419	    -14.65698204	     -4.88774447	     42.37929834	      0.73965829	    -16.76487969	     -6.43748356	      0.00000000	      0.00000000	     78.99234117	      4.24819260	     -1.10823802	     97.07349416	      1.69425209	     24.54910670	      7.33376188	      0.00000000	      0.00000000	    -45.40921259	     -5.49687201	    -17.91274483	     58.43670081	     -2.45488712	     23.16118203	     29.48328236	     48.12804118	      0.00000000	      0.00000000	     51.03226924	    -15.16066721	     20.51334436	     69.90251620	     49.54759377	      0.00000000	      0.00000000
      5.03000000	    -28.04569275	      3.93663110	     17.14254044	      0.38884104	      1.07928394	     -0.23112417	      0.00000000	      0.50000000	      0.00000000	      0.25000000	     33.61826559	    -14.05678879	     -4.93539862	     44.75017966	      0.78103798	    -16.33495403	     -6.36188581	      0.00000000	      0.00000000	     77.96641130	      4.04380092	     -0.68694066	     94.93922642	      1.65700209	     25.18291522	      7.52928287	      0.00000000	      0.00000000	    -45.51555159	     -5.29830582	    -17.48019372	     58.68833173	     -2.55200330	     23.31099632	     28.99408375	     48.09390716	      0.00000000	      0.00000000	     51.02681771	    -14.77434196	     20.33105175	     69.62835788	     49.46822540	      0.00000000	      0.00000000
      5.03500000	    -27.55290528	      3.30269946	     16.95467805	      0.38927672	      1.07980221	     -0.23135158	      0.00000000	      0.50000000	      0.00000000	      0.25000000	     33.93488579	    -13.38899996	     -5.06627463	     47.18206675	      0.82348241	    -16.17135659	     -6.48209501	      0.00000000	      0.00000000	     76.86910856	      3.70355888	     -0.28731783	     92.80540053	      1.61975980	     25.50938469	      7.47992714	      0.00000000	      0.00000000	    -45.66810629	     -4.97959993	    -16.97590769	     58.82417020	     -2.52249771	     23.43207455	     28.71933343	     48.07743294	      0.00000000	      0.00000000	     50.91916605	    -14.64536956	     20.24782454	     69.47301121	     49.42851484	      0.00000000	      0.00000000
      5.04000000	    -27.08027645	      2.77046828	     16.71716169	      0.38966232	      1.08029074	     -0.23162726	      0.00000000	      0.50000000	      0.00000000	      0.25000000	     34.33934514	    -12.83602285	     -5.12249565	     49.70461417	      0.86750917	    -15.73958283	     -6.23294499	      0.00000000	      0.00000000	     75.76404275	      3.27070600	     -0.05308297	     90.63725387	      1.58191851	     25.47696479	      7.66839561	      0.00000000	      0.00000000	    -45.66207299	     -4.74542210	    -16.65994887	     60.33437649	     -2.04685095	     26.53645543	     24.78923256	     48.16280497	      0.00000000	      0.00000000	     50.86154010	    -14.28247322	     19.82880204	     68.58189631	     49.07174284	      0.00000000	      0.00000000
      5.04500000	    -26.61446798	      2.06193270	     16.44828647	      0.39007737	      1.08079740	     -0.23193933	      0.00000000	      0.50000000	      0.00000000	      0.25000000	     34.75653788	    -12.10365198	     -5.26762685	     52.03160333	      0.90812279	    -15.89070084	     -6.24951971	      0.00000000	      0.00000000	     74.64429842	      2.72874447	      0.27141813	     88.41403349	      1.54311599	     25.35963655	      7.65726903	      0.00000000	      0.00000000	    -45.73780490	     -4.33139113	    -16.05000312	     60.31487345	     -1.99538596	     26.58200073	     24.73150235	     48.16338465	      0.00000000	      0.00000000	     50.70385389	    -14.36169702	     19.77914170	     68.54742384	     49.06058618	      0.00000000	      0.00000000
      5.05000000	    -26.24462929	      1.55358813	     16.04391062	      0.39042856	      1.08092996	     -0.23198352	      0.00000000	      0.50000000	      0.00000000	      0.25000000	     35.41851858	    -11.54776071	     -5.28323929	     54.67289032	      0.95422195	    -15.50507904	     -6.34816303	      0.00000000	      0.00000000	     73.63388365	      2.12790520	      0.38395644	     86.29000722	      1.50604474	     24.81817941	      7.76713152	      0.00000000	      0.00000000	    -45.81042002	     -4.24950079	    -15.40096080	     60.55058574	     -2.09915022	     26.65876689	     24.40736048	     48.12587613	      0.00000000	      0.00000000	     50.69972707	    -14.25630458	     19.79478369	     68.45561511	     49.03948097	      0.00000000	      0.00000000
      5.05500000	    -25.77815518	      1.12063636	     15.44033482	      0.39101632	      1.08127631	     -0.23202125	      0.00000000	      0.50000000	      0.00000000	      0.25000000	     35.98485298	    -11.00311660	     -5.21981288	     57.20977537	      0.99849894	    -15.18058611	     -5.93351519	      0.00000000	      0.00000000	     72.45626137	      1.47898308	      0.48004395	     84.16871117	      1.46902114	     24.01033349	      7.38973438	      0.00000000	      0.00000000	    -45.76698594	     -4.28016737	    -14.51569956	     61.32457240	     -1.77419115	     27.57176206	     22.00924329	     47.91958737	      0.00000000	      0.00000000	     51.12639878	    -13.91735767	     20.33235421	     66.89274859	     48.77600975	      0.00000000	      0.00000000
      5.06000000	    -25.34369284	      0.59617157	     14.92677982	      0.39140085	      1.08155612	     -0.23228776	      0.00000000	      0.50000000	      0.00000000	      0.25000000	     36.56709999	    -10.42849423	     -5.27439257	     59.67696453	      1.04155952	    -15.02691458	     -6.01260310	      0.00000000	      0.00000000	     71.31575850	      0.82596605	      0.64348059	     82.04332073	      1.43192608	     23.07054451	      7.43053142	      0.00000000	      0.00000000	    -45.83772831	     -4.04784441	    -13.82587317	     61.50619272	     -1.70410204	     27.67901342	     21.82467057	     47.90599360	      0.00000000	      0.00000000	     50.97422096	    -14.05017271	     20.37024166	     66.76708934	     48.75541623	      0.00000000	      0.00000000
      5.06500000	    -25.09002291	      0.23046692	     14.33400799	      0.39157132	      1.08178802	     -0.23266141	      0.00000000	      0.50000000	      0.00000000	      0.25000000	     37.37763762	    -10.03060099	     -5.07149399	     62.20035902	      1.08560106	    -14.58411150	     -5.59523089	      0.00000000	      0.00000000	     70.22811275	      0.15318490	      0.50846754	     79.81719298	      1.39307282	     21.88749247	      7.18777724	      0.00000000	      0.00000000	    -45.70199549	     -4.05223819	    -13.15693127	     61.83046258	     -1.49777784	     27.98058100	     20.90682289	     47.80809838	      0.00000000	      0.00000000	     51.06072614	    -14.18308707	     20.84286223	     66.14660318	     48.68416695	      0.00000000	      0.00000000
      5.07000000	    -24.61375916	     -0.33201722	     13.73319038	      0.39194024	      1.08209953	     -0.23299268	      0.00000000	      0.50000000	      0.00000000	      0.25000000	     37.90238532	     -9.38699045	     -5.11366002	     64.59411791	      1.12738003	    -14.13628401	     -5.66517106	      0.00000000	      0.00000000	     69.03940410	     -0.64399688	      0.74757491	     77.77583907	      1.35744447	     20.54145526	      7.49799038	      0.00000000	      0.00000000	    -45.83695203	     -3.78296822	    -12.41197785	     62.16691111	     -1.37919232	     28.07793246	     20.65681523	     47.77699174	      0.00000000	      0.00000000	     51.00622338	    -14.39681476	     20.96118201	     65.83571280	     48.64151458	      0.00000000	      0.00000000
